<svg version="1.1" xmlns="http://www.w3.org/2000/svg" xmlns:xlink="http://www.w3.org/1999/xlink" width="492" height="388"><defs/><g><text fill="#eeeeee" stroke="none" font-family="Arial" font-size="24px" font-style="normal" font-weight="normal" text-decoration="none" x="0" y="0">UNREGISTERED</text><text fill="#eeeeee" stroke="none" font-family="Arial" font-size="24px" font-style="normal" font-weight="normal" text-decoration="none" x="0" y="30">UNREGISTERED</text><text fill="#eeeeee" stroke="none" font-family="Arial" font-size="24px" font-style="normal" font-weight="normal" text-decoration="none" x="0" y="60">UNREGISTERED</text><text fill="#eeeeee" stroke="none" font-family="Arial" font-size="24px" font-style="normal" font-weight="normal" text-decoration="none" x="0" y="90">UNREGISTERED</text><text fill="#eeeeee" stroke="none" font-family="Arial" font-size="24px" font-style="normal" font-weight="normal" text-decoration="none" x="0" y="120">UNREGISTERED</text><text fill="#eeeeee" stroke="none" font-family="Arial" font-size="24px" font-style="normal" font-weight="normal" text-decoration="none" x="0" y="150">UNREGISTERED</text><text fill="#eeeeee" stroke="none" font-family="Arial" font-size="24px" font-style="normal" font-weight="normal" text-decoration="none" x="0" y="180">UNREGISTERED</text><text fill="#eeeeee" stroke="none" font-family="Arial" font-size="24px" font-style="normal" font-weight="normal" text-decoration="none" x="0" y="210">UNREGISTERED</text><text fill="#eeeeee" stroke="none" font-family="Arial" font-size="24px" font-style="normal" font-weight="normal" text-decoration="none" x="0" y="240">UNREGISTERED</text><text fill="#eeeeee" stroke="none" font-family="Arial" font-size="24px" font-style="normal" font-weight="normal" text-decoration="none" x="0" y="270">UNREGISTERED</text><text fill="#eeeeee" stroke="none" font-family="Arial" font-size="24px" font-style="normal" font-weight="normal" text-decoration="none" x="0" y="300">UNREGISTERED</text><text fill="#eeeeee" stroke="none" font-family="Arial" font-size="24px" font-style="normal" font-weight="normal" text-decoration="none" x="0" y="330">UNREGISTERED</text><text fill="#eeeeee" stroke="none" font-family="Arial" font-size="24px" font-style="normal" font-weight="normal" text-decoration="none" x="0" y="360">UNREGISTERED</text><text fill="#eeeeee" stroke="none" font-family="Arial" font-size="24px" font-style="normal" font-weight="normal" text-decoration="none" x="200" y="0">UNREGISTERED</text><text fill="#eeeeee" stroke="none" font-family="Arial" font-size="24px" font-style="normal" font-weight="normal" text-decoration="none" x="200" y="30">UNREGISTERED</text><text fill="#eeeeee" stroke="none" font-family="Arial" font-size="24px" font-style="normal" font-weight="normal" text-decoration="none" x="200" y="60">UNREGISTERED</text><text fill="#eeeeee" stroke="none" font-family="Arial" font-size="24px" font-style="normal" font-weight="normal" text-decoration="none" x="200" y="90">UNREGISTERED</text><text fill="#eeeeee" stroke="none" font-family="Arial" font-size="24px" font-style="normal" font-weight="normal" text-decoration="none" x="200" y="120">UNREGISTERED</text><text fill="#eeeeee" stroke="none" font-family="Arial" font-size="24px" font-style="normal" font-weight="normal" text-decoration="none" x="200" y="150">UNREGISTERED</text><text fill="#eeeeee" stroke="none" font-family="Arial" font-size="24px" font-style="normal" font-weight="normal" text-decoration="none" x="200" y="180">UNREGISTERED</text><text fill="#eeeeee" stroke="none" font-family="Arial" font-size="24px" font-style="normal" font-weight="normal" text-decoration="none" x="200" y="210">UNREGISTERED</text><text fill="#eeeeee" stroke="none" font-family="Arial" font-size="24px" font-style="normal" font-weight="normal" text-decoration="none" x="200" y="240">UNREGISTERED</text><text fill="#eeeeee" stroke="none" font-family="Arial" font-size="24px" font-style="normal" font-weight="normal" text-decoration="none" x="200" y="270">UNREGISTERED</text><text fill="#eeeeee" stroke="none" font-family="Arial" font-size="24px" font-style="normal" font-weight="normal" text-decoration="none" x="200" y="300">UNREGISTERED</text><text fill="#eeeeee" stroke="none" font-family="Arial" font-size="24px" font-style="normal" font-weight="normal" text-decoration="none" x="200" y="330">UNREGISTERED</text><text fill="#eeeeee" stroke="none" font-family="Arial" font-size="24px" font-style="normal" font-weight="normal" text-decoration="none" x="200" y="360">UNREGISTERED</text><text fill="#eeeeee" stroke="none" font-family="Arial" font-size="24px" font-style="normal" font-weight="normal" text-decoration="none" x="400" y="0">UNREGISTERED</text><text fill="#eeeeee" stroke="none" font-family="Arial" font-size="24px" font-style="normal" font-weight="normal" text-decoration="none" x="400" y="30">UNREGISTERED</text><text fill="#eeeeee" stroke="none" font-family="Arial" font-size="24px" font-style="normal" font-weight="normal" text-decoration="none" x="400" y="60">UNREGISTERED</text><text fill="#eeeeee" stroke="none" font-family="Arial" font-size="24px" font-style="normal" font-weight="normal" text-decoration="none" x="400" y="90">UNREGISTERED</text><text fill="#eeeeee" stroke="none" font-family="Arial" font-size="24px" font-style="normal" font-weight="normal" text-decoration="none" x="400" y="120">UNREGISTERED</text><text fill="#eeeeee" stroke="none" font-family="Arial" font-size="24px" font-style="normal" font-weight="normal" text-decoration="none" x="400" y="150">UNREGISTERED</text><text fill="#eeeeee" stroke="none" font-family="Arial" font-size="24px" font-style="normal" font-weight="normal" text-decoration="none" x="400" y="180">UNREGISTERED</text><text fill="#eeeeee" stroke="none" font-family="Arial" font-size="24px" font-style="normal" font-weight="normal" text-decoration="none" x="400" y="210">UNREGISTERED</text><text fill="#eeeeee" stroke="none" font-family="Arial" font-size="24px" font-style="normal" font-weight="normal" text-decoration="none" x="400" y="240">UNREGISTERED</text><text fill="#eeeeee" stroke="none" font-family="Arial" font-size="24px" font-style="normal" font-weight="normal" text-decoration="none" x="400" y="270">UNREGISTERED</text><text fill="#eeeeee" stroke="none" font-family="Arial" font-size="24px" font-style="normal" font-weight="normal" text-decoration="none" x="400" y="300">UNREGISTERED</text><text fill="#eeeeee" stroke="none" font-family="Arial" font-size="24px" font-style="normal" font-weight="normal" text-decoration="none" x="400" y="330">UNREGISTERED</text><text fill="#eeeeee" stroke="none" font-family="Arial" font-size="24px" font-style="normal" font-weight="normal" text-decoration="none" x="400" y="360">UNREGISTERED</text><g transform="translate(-38,-78) scale(1,1)"><rect fill="#C0C0C0" stroke="none" x="167" y="95" width="360" height="368" opacity="0.2"/></g><g transform="translate(-38,-78) scale(1,1)"><rect fill="#ffffff" stroke="none" x="160" y="88" width="360" height="368"/></g><g transform="translate(-38,-78) scale(1,1)"><path fill="none" stroke="#000000" d="M 160 88 L 520 88 L 520 456 L 160 456 L 160 88 Z Z" stroke-miterlimit="10"/></g><g transform="translate(-38,-78) scale(1,1)"><g><path fill="none" stroke="none"/><text fill="#000000" stroke="none" font-family="Arial" font-size="13px" font-style="normal" font-weight="bold" text-decoration="none" x="316.161376953125" y="107.5">Ultimate</text></g></g><g transform="translate(-38,-78) scale(1,1)"><path fill="#ffffff" stroke="none" d="M 65.49162571022727 185.68 C 65.49162571022727 180.886167936 69.37746803517273 177 74.1708984375 177 C 78.96432883982727 177 82.85017116477273 180.886167936 82.85017116477273 185.68 C 82.85017116477273 190.47383206400002 78.96432883982727 194.36 74.1708984375 194.36 C 69.37746803517273 194.36 65.49162571022727 190.47383206400002 65.49162571022727 185.68 Z"/></g><g transform="translate(-38,-78) scale(1,1)"><path fill="none" stroke="#000000" d="M 65.49162571022727 185.68 C 65.49162571022727 180.886167936 69.37746803517273 177 74.1708984375 177 C 78.96432883982727 177 82.85017116477273 180.886167936 82.85017116477273 185.68 C 82.85017116477273 190.47383206400002 78.96432883982727 194.36 74.1708984375 194.36 C 69.37746803517273 194.36 65.49162571022727 190.47383206400002 65.49162571022727 185.68 Z" stroke-miterlimit="10"/></g><g transform="translate(-38,-78) scale(1,1)"><path fill="none" stroke="#000000" d="M 74.1708984375 194.36 L 74.1708984375 211.64" stroke-miterlimit="10"/></g><g transform="translate(-38,-78) scale(1,1)"><path fill="none" stroke="#000000" d="M 64.98108025568182 200.84 L 83.36071661931818 200.84" stroke-miterlimit="10"/></g><g transform="translate(-38,-78) scale(1,1)"><path fill="none" stroke="#000000" d="M 74.1708984375 211.64 L 61.407262073863635 229" stroke-miterlimit="10"/></g><g transform="translate(-38,-78) scale(1,1)"><path fill="none" stroke="#000000" d="M 74.1708984375 211.64 L 86.93453480113637 229" stroke-miterlimit="10"/></g><g transform="translate(-38,-78) scale(1,1)"><g><path fill="none" stroke="none"/><text fill="#000000" stroke="none" font-family="Arial" font-size="13px" font-style="normal" font-weight="bold" text-decoration="none" x="54.29638671875" y="249.5">Joueur</text></g></g><g transform="translate(-38,-78) scale(1,1)"><path fill="#C0C0C0" stroke="none" d="M 287 360 C 287 350.6111584 324.8319344 343 371.5 343 C 418.1680656 343 456 350.6111584 456 360 C 456 369.3888416 418.1680656 377 371.5 377 C 324.8319344 377 287 369.3888416 287 360 Z" opacity="0.2"/></g><g transform="translate(-38,-78) scale(1,1)"><path fill="#ffffff" stroke="none" d="M 280 353 C 280 343.6111584 317.8319344 336 364.5 336 C 411.1680656 336 449 343.6111584 449 353 C 449 362.3888416 411.1680656 370 364.5 370 C 317.8319344 370 280 362.3888416 280 353 Z"/></g><g transform="translate(-38,-78) scale(1,1)"><path fill="none" stroke="#000000" d="M 280 353 C 280 343.6111584 317.8319344 336 364.5 336 C 411.1680656 336 449 343.6111584 449 353 C 449 362.3888416 411.1680656 370 364.5 370 C 317.8319344 370 280 362.3888416 280 353 Z" stroke-miterlimit="10"/></g><g transform="translate(-38,-78) scale(1,1)"><g><path fill="none" stroke="none"/><text fill="#000000" stroke="none" font-family="Arial" font-size="13px" font-style="normal" font-weight="bold" text-decoration="none" x="312.680908203125" y="360">Remporter l'arène</text></g></g><g transform="translate(-38,-78) scale(1,1)"><path fill="none" stroke="#000000" d="M 101 228 L 326 335" stroke-miterlimit="10"/></g><g transform="translate(-38,-78) scale(1,1)"><path fill="#C0C0C0" stroke="none" d="M 343 248 C 343 238.6111584 366.505048 231 395.5 231 C 424.494952 231 448 238.6111584 448 248 C 448 257.3888416 424.494952 265 395.5 265 C 366.505048 265 343 257.3888416 343 248 Z" opacity="0.2"/></g><g transform="translate(-38,-78) scale(1,1)"><path fill="#ffffff" stroke="none" d="M 336 241 C 336 231.6111584 359.505048 224 388.5 224 C 417.494952 224 441 231.6111584 441 241 C 441 250.3888416 417.494952 258 388.5 258 C 359.505048 258 336 250.3888416 336 241 Z"/></g><g transform="translate(-38,-78) scale(1,1)"><path fill="none" stroke="#000000" d="M 336 241 C 336 231.6111584 359.505048 224 388.5 224 C 417.494952 224 441 231.6111584 441 241 C 441 250.3888416 417.494952 258 388.5 258 C 359.505048 258 336 250.3888416 336 241 Z" stroke-miterlimit="10"/></g><g transform="translate(-38,-78) scale(1,1)"><g><path fill="none" stroke="none"/><text fill="#000000" stroke="none" font-family="Arial" font-size="13px" font-style="normal" font-weight="bold" text-decoration="none" x="358.155029296875" y="248">Combattre</text></g></g><g transform="translate(-38,-78) scale(1,1)"><path fill="none" stroke="#000000" d="M 101 217 L 335 237" stroke-miterlimit="10"/></g><g transform="translate(-38,-78) scale(1,1)"><path fill="#C0C0C0" stroke="none" d="M 311 144 C 311 134.6111584 355.9953776 127 411.5 127 C 467.0046224 127 512 134.6111584 512 144 C 512 153.3888416 467.0046224 161 411.5 161 C 355.9953776 161 311 153.3888416 311 144 Z" opacity="0.2"/></g><g transform="translate(-38,-78) scale(1,1)"><path fill="#ffffff" stroke="none" d="M 304 137 C 304 127.6111584 348.9953776 120 404.5 120 C 460.0046224 120 505 127.6111584 505 137 C 505 146.3888416 460.0046224 154 404.5 154 C 348.9953776 154 304 146.3888416 304 137 Z"/></g><g transform="translate(-38,-78) scale(1,1)"><path fill="none" stroke="#000000" d="M 304 137 C 304 127.6111584 348.9953776 120 404.5 120 C 460.0046224 120 505 127.6111584 505 137 C 505 146.3888416 460.0046224 154 404.5 154 C 348.9953776 154 304 146.3888416 304 137 Z" stroke-miterlimit="10"/></g><g transform="translate(-38,-78) scale(1,1)"><g><path fill="none" stroke="none"/><text fill="#000000" stroke="none" font-family="Arial" font-size="13px" font-style="normal" font-weight="bold" text-decoration="none" x="351.760498046875" y="144">Choisir son starter</text></g></g><g transform="translate(-38,-78) scale(1,1)"><path fill="none" stroke="#000000" d="M 101 209 L 328 155" stroke-miterlimit="10"/></g><g transform="translate(-38,-78) scale(1,1)"><path fill="none" stroke="#000000" d="M 397 224 L 397 154" stroke-miterlimit="10" stroke-dasharray="3"/></g><g transform="translate(-38,-78) scale(1,1)"><path fill="none" stroke="#000000" d="M 401.209517756016 164.16267485762415 L 397 154 L 392.790482243984 164.16267485762415" stroke-miterlimit="10"/></g><g transform="translate(-38,-78) scale(1,1)"><g><path fill="none" stroke="none"/><text fill="#000000" stroke="none" font-family="Arial" font-size="13px" font-style="normal" font-weight="normal" text-decoration="none" x="335.5" y="196.5">«include»</text></g></g><g transform="translate(-38,-78) scale(1,1)"><path fill="#C0C0C0" stroke="none" d="M 287 424 C 287 414.6111584 330.4283744 407 384 407 C 437.5716256 407 481 414.6111584 481 424 C 481 433.3888416 437.5716256 441 384 441 C 330.4283744 441 287 433.3888416 287 424 Z" opacity="0.2"/></g><g transform="translate(-38,-78) scale(1,1)"><path fill="#ffffff" stroke="none" d="M 280 417 C 280 407.6111584 323.4283744 400 377 400 C 430.5716256 400 474 407.6111584 474 417 C 474 426.3888416 430.5716256 434 377 434 C 323.4283744 434 280 426.3888416 280 417 Z"/></g><g transform="translate(-38,-78) scale(1,1)"><path fill="none" stroke="#000000" d="M 280 417 C 280 407.6111584 323.4283744 400 377 400 C 430.5716256 400 474 407.6111584 474 417 C 474 426.3888416 430.5716256 434 377 434 C 323.4283744 434 280 426.3888416 280 417 Z" stroke-miterlimit="10"/></g><g transform="translate(-38,-78) scale(1,1)"><g><path fill="none" stroke="none"/><text fill="#000000" stroke="none" font-family="Arial" font-size="13px" font-style="normal" font-weight="bold" text-decoration="none" x="318.115966796875" y="424">Consulter les scores</text></g></g><g transform="translate(-38,-78) scale(1,1)"><path fill="none" stroke="#000000" d="M 101 233 L 350 399" stroke-miterlimit="10"/></g><g transform="translate(-38,-78) scale(1,1)"><path fill="none" stroke="#000000" d="M 368 335 L 384 259" stroke-miterlimit="10" stroke-dasharray="3"/></g><g transform="translate(-38,-78) scale(1,1)"><path fill="none" stroke="#000000" d="M 386.02560515887507 269.8118880747231 L 384 259 L 377.7871597687804 268.07747851891367" stroke-miterlimit="10"/></g><g transform="translate(-38,-78) scale(1,1)"><g><path fill="none" stroke="none"/><text fill="#000000" stroke="none" font-family="Arial" font-size="13px" font-style="normal" font-weight="normal" text-decoration="none" x="308.5" y="293.5">«include»</text></g></g></g></svg>